<?xml version="1.0" standalone="no"?>
<!DOCTYPE svg PUBLIC "-//W3C//DTD SVG 20010904//EN"
 "http://www.w3.org/TR/2001/REC-SVG-20010904/DTD/svg10.dtd">
<svg version="1.0" xmlns="http://www.w3.org/2000/svg"
 width="300.000000pt" height="300.000000pt" viewBox="0 0 300.000000 300.000000"
 preserveAspectRatio="xMidYMid meet">
<metadata>
Created by potrace 1.14, written by Peter Selinger 2001-2017
</metadata>
<g transform="translate(0.000000,300.000000) scale(0.100000,-0.100000)"
fill="#000000" stroke="none">
<path d="M1546 2663 c-26 -43 -76 -123 -112 -178 -35 -55 -91 -142 -124 -192
-33 -51 -65 -93 -71 -93 -5 0 -49 11 -97 24 -48 14 -130 36 -182 50 -52 14
-171 46 -265 71 -196 52 -174 47 -288 76 -48 12 -89 20 -91 18 -3 -4 -10 -39
-21 -124 -3 -16 -7 -46 -10 -65 -3 -19 -7 -53 -10 -75 -7 -49 -16 -115 -20
-136 -2 -9 -6 -40 -10 -70 -3 -30 -8 -65 -10 -79 -2 -14 -7 -45 -10 -70 -3
-25 -8 -57 -11 -71 -2 -15 -6 -44 -9 -65 -3 -22 -7 -48 -9 -59 -2 -11 -7 -45
-11 -75 -6 -51 -10 -77 -20 -140 -2 -14 -6 -45 -10 -70 -7 -59 -15 -118 -21
-155 -3 -16 -7 -46 -9 -65 -2 -19 -8 -64 -14 -100 -5 -36 -13 -85 -16 -110 -3
-25 -10 -72 -15 -105 -5 -33 -12 -78 -14 -100 -3 -22 -17 -118 -31 -214 -14
-96 -27 -189 -29 -207 l-4 -32 36 10 c21 5 117 32 214 59 98 27 189 51 203 53
13 3 28 7 33 10 5 3 19 7 33 10 13 2 92 23 174 46 83 22 157 43 165 45 17 4
42 11 334 90 114 31 215 58 225 60 9 3 66 18 126 35 61 17 117 33 125 35 62
15 112 28 230 60 74 20 200 54 280 76 80 21 159 43 175 48 17 6 77 22 135 36
58 14 112 28 120 32 8 3 20 7 25 8 17 4 207 56 265 72 30 8 65 17 77 20 l21 5
0 685 0 684 -21 9 c-12 5 -92 23 -177 40 -85 17 -168 36 -185 41 -16 4 -46 11
-65 14 -19 3 -42 8 -50 10 -8 2 -28 7 -45 10 -16 2 -39 7 -50 9 -11 3 -85 19
-165 36 -80 17 -154 33 -165 36 -11 2 -33 7 -50 10 -16 2 -46 9 -65 14 -19 5
-46 11 -60 14 -14 2 -70 14 -125 26 -55 12 -111 23 -125 26 -14 3 -32 7 -40 9
-11 4 -30 -19 -64 -72z"/>
</g>
</svg>
